<svg width="200" height="200" viewBox="0 0 52.9 52.9" xmlns="http://www.w3.org/2000/svg" xmlns:xlink="http://www.w3.org/1999/xlink">
 <g transform="matrix(.472 0 0 .472 1.18 -3.78)" stroke-width=".56">
  <path d="m94.2 22.8c-10.4-14.9-30.9-19.3-45.8-9.83l-26.1 16.6a29.9 29.9 0 0 0-13.5 20 31.5 31.5 0 0 0 3.11 20.2 30 30 0 0 0-4.48 11.2 31.9 31.9 0 0 0 5.45 24.1c10.4 14.9 30.9 19.3 45.8 9.83l26.1-16.6a29.9 29.9 0 0 0 13.5-20 31.5 31.5 0 0 0-3.11-20.2 30 30 0 0 0 4.47-11.2 31.9 31.9 0 0 0-5.45-24.1" fill="#ff3e00"/>
  <path d="m45.8 107a20.7 20.7 0 0 1-22.2-8.24 19.2 19.2 0 0 1-3.28-14.5 18.2 18.2 0 0 1 0.623-2.44l0.491-1.5 1.34 0.982a33.6 33.6 0 0 0 10.2 5.1l0.969 0.294-0.0893 0.968a5.85 5.85 0 0 0 1.05 3.88 6.24 6.24 0 0 0 6.7 2.48 5.74 5.74 0 0 0 1.6-0.704l26.1-16.6a5.43 5.43 0 0 0 2.45-3.63 5.79 5.79 0 0 0-0.988-4.37 6.24 6.24 0 0 0-6.7-2.49 5.74 5.74 0 0 0-1.6 0.704l-9.95 6.34a19 19 0 0 1-5.3 2.33 20.7 20.7 0 0 1-22.2-8.24 19.2 19.2 0 0 1-3.28-14.5 18 18 0 0 1 8.13-12.1l26.1-16.6a19 19 0 0 1 5.3-2.33 20.7 20.7 0 0 1 22.2 8.24 19.2 19.2 0 0 1 3.28 14.5 18.4 18.4 0 0 1-0.623 2.44l-0.491 1.5-1.34-0.98a33.6 33.6 0 0 0-10.2-5.1l-0.969-0.294 0.0893-0.968a5.86 5.86 0 0 0-1.05-3.88 6.24 6.24 0 0 0-6.7-2.48 5.74 5.74 0 0 0-1.6 0.704l-26.1 16.6a5.42 5.42 0 0 0-2.45 3.63 5.79 5.79 0 0 0 0.986 4.37 6.24 6.24 0 0 0 6.7 2.49 5.77 5.77 0 0 0 1.6-0.704l9.95-6.34a19 19 0 0 1 5.3-2.33 20.7 20.7 0 0 1 22.2 8.24 19.2 19.2 0 0 1 3.28 14.5 18 18 0 0 1-8.13 12.1l-26.1 16.6a19 19 0 0 1-5.3 2.33" fill="#fff"/>
 </g>
</svg>
